<svg preserveAspectRatio="none" width="100%" height="100%" overflow="visible" style="display: block;" viewBox="0 0 19.9898 20.0003" fill="none" xmlns="http://www.w3.org/2000/svg">
<g id="Group">
<path id="Vector" d="M9.99499 6.10551C7.84707 6.10551 6.10583 7.84675 6.10583 9.99472C6.10583 12.1427 7.84707 13.8839 9.99499 13.8839C12.143 13.8841 13.8842 12.1429 13.8842 9.99487C13.8816 7.848 12.142 6.10816 9.99499 6.10551ZM9.99499 12.7729C8.46078 12.7729 7.21684 11.529 7.21684 9.99472C7.21704 8.46051 8.46073 7.21672 9.99499 7.21672C11.5292 7.21672 12.773 8.46051 12.773 9.99493C12.7712 11.5283 11.5284 12.771 9.99499 12.7729Z" fill="var(--fill-0, #4A72AE)"/>
<path id="Vector_2" d="M19.0127 11.1049C18.8431 10.9738 18.7059 10.8055 18.6115 10.613C18.5171 10.4206 18.468 10.2091 18.4679 9.99472C18.4679 9.56032 18.6691 9.15036 19.0127 8.88475C19.9105 8.19115 20.2324 6.98202 19.7984 5.93411C19.3642 4.886 18.2817 4.25863 17.1566 4.40293C16.944 4.43022 16.728 4.40841 16.5251 4.33918C16.3222 4.26996 16.1379 4.15515 15.9863 4.00359C15.8347 3.85202 15.7199 3.66773 15.6506 3.46487C15.5814 3.262 15.5595 3.04596 15.5868 2.83334C15.7311 1.708 15.1039 0.625496 14.0558 0.191514C13.0077 -0.242676 11.7986 0.0791627 11.105 0.977038C10.9693 1.13955 10.7995 1.27029 10.6077 1.36002C10.4159 1.44975 10.2068 1.49628 9.99504 1.49633C9.78326 1.49628 9.57407 1.44975 9.38223 1.36003C9.1904 1.2703 9.0206 1.13956 8.88481 0.977038C8.19126 0.0791627 6.98234 -0.242676 5.93422 0.191514C4.88606 0.625496 4.25869 1.708 4.40304 2.83308C4.43042 3.04573 4.40865 3.26182 4.33941 3.46474C4.27017 3.66766 4.15531 3.85199 4.00366 4.00355C3.8521 4.15514 3.6678 4.26996 3.46493 4.33919C3.26206 4.40843 3.04602 4.43023 2.8334 4.40293C1.70811 4.25843 0.625557 4.88579 0.191367 5.93396C-0.242615 6.98201 0.0794323 8.1912 0.977151 8.8847C1.14671 9.01581 1.28398 9.18403 1.3784 9.37646C1.47283 9.56888 1.52191 9.78038 1.52187 9.99472C1.52186 10.2091 1.47276 10.4206 1.37834 10.613C1.28392 10.8055 1.14668 10.9738 0.977151 11.1049C0.079276 11.7982 -0.242615 13.0074 0.191367 14.0555C0.625557 15.1036 1.70811 15.731 2.8334 15.5867C3.04602 15.5594 3.26206 15.5812 3.46493 15.6505C3.6678 15.7197 3.8521 15.8345 4.00366 15.9861C4.15528 16.1376 4.27012 16.3219 4.33936 16.5248C4.4086 16.7277 4.43038 16.9437 4.40304 17.1564C4.23816 18.2857 4.87246 19.3798 5.93422 19.7981C6.24851 19.93 6.58569 19.9987 6.92652 20.0003C7.30711 19.9984 7.68206 19.9082 8.02187 19.7368C8.36169 19.5655 8.65708 19.3175 8.88481 19.0126C9.02059 18.8501 9.19038 18.7194 9.38221 18.6296C9.57403 18.5399 9.78321 18.4934 9.99499 18.4933C10.2067 18.4934 10.4159 18.5399 10.6077 18.6296C10.7995 18.7193 10.9693 18.8501 11.105 19.0126C11.7986 19.9105 13.0077 20.2323 14.0558 19.7981C15.1039 19.3641 15.7313 18.2816 15.5868 17.1564C15.5595 16.9437 15.5813 16.7277 15.6506 16.5248C15.7198 16.322 15.8346 16.1377 15.9862 15.9861C16.1378 15.8345 16.3221 15.7197 16.525 15.6505C16.7279 15.5812 16.944 15.5594 17.1566 15.5867C18.2819 15.7311 19.3642 15.1036 19.7984 14.0555C20.2324 13.0074 19.9106 11.7984 19.0127 11.1049ZM18.7712 13.6301C18.5402 14.2245 17.9281 14.5793 17.2977 14.484C16.9166 14.4353 16.5295 14.4745 16.166 14.5987C15.8025 14.7229 15.4723 14.9287 15.2006 15.2003C14.929 15.4719 14.7231 15.8022 14.599 16.1657C14.4748 16.5292 14.4356 16.9164 14.4843 17.2974C14.5234 17.6027 14.4609 17.9125 14.3066 18.1788C14.1522 18.4451 13.9145 18.6532 13.6301 18.771C13.3457 18.8889 13.0305 18.9098 12.733 18.8307C12.4355 18.7516 12.1723 18.5768 11.984 18.3333C11.7409 18.0419 11.4368 17.8074 11.0931 17.6465C10.7494 17.4856 10.3745 17.4022 9.99499 17.4022C9.61545 17.4022 9.24054 17.4856 8.8968 17.6465C8.55306 17.8074 8.24888 18.0419 8.0058 18.3333C7.81751 18.5769 7.55431 18.7517 7.2568 18.8309C6.95929 18.91 6.64401 18.889 6.35961 18.7712C6.07521 18.6534 5.83749 18.4452 5.68316 18.1789C5.52883 17.9125 5.46648 17.6027 5.50571 17.2974C5.55088 16.9436 5.5203 16.5843 5.41599 16.2432C5.31168 15.9021 5.13602 15.5871 4.90069 15.3191C4.66535 15.0511 4.37571 14.8362 4.05098 14.6887C3.72625 14.5412 3.37386 14.4644 3.0172 14.4635C2.90859 14.4637 2.8001 14.4705 2.69234 14.484C2.06455 14.5646 1.46079 14.2145 1.21853 13.6299C0.976317 13.0453 1.15584 12.3709 1.65642 11.9839C1.96038 11.749 2.20646 11.4476 2.37577 11.1027C2.54508 10.7579 2.6331 10.3789 2.63309 9.99472C2.63307 9.6106 2.54503 9.2316 2.37572 8.88681C2.20642 8.54202 1.96035 8.24062 1.65642 8.00574C1.41291 7.81744 1.23812 7.55425 1.15902 7.25676C1.07991 6.95927 1.10089 6.64402 1.21872 6.35964C1.33654 6.07526 1.54466 5.83755 1.81098 5.68318C2.0773 5.52881 2.38701 5.46635 2.69234 5.50545C3.07338 5.55414 3.46052 5.51489 3.82404 5.39072C4.18756 5.26655 4.5178 5.06076 4.78943 4.78912C5.06106 4.51749 5.26685 4.18724 5.39101 3.82372C5.51518 3.4602 5.55442 3.07306 5.50571 2.69202C5.4251 2.06444 5.77523 1.46068 6.35982 1.21847C6.64418 1.1006 6.95944 1.07961 7.25693 1.15874C7.55441 1.23787 7.81758 1.41273 8.0058 1.65631C8.24889 1.94775 8.55305 2.18221 8.89677 2.3431C9.24049 2.504 9.61537 2.58739 9.99488 2.58739C10.3744 2.58739 10.7493 2.504 11.093 2.3431C11.4367 2.18221 11.7409 1.94775 11.984 1.65631C12.1722 1.41278 12.4354 1.23797 12.7329 1.15884C13.0304 1.07971 13.3456 1.10067 13.63 1.21847C13.9144 1.33627 14.1521 1.54438 14.3065 1.81068C14.4609 2.07698 14.5233 2.38669 14.4843 2.69202C14.4356 3.07307 14.4748 3.46022 14.5989 3.82377C14.7231 4.18732 14.9288 4.5176 15.2004 4.78928C15.4721 5.06088 15.8024 5.26664 16.1659 5.39078C16.5295 5.51492 16.9166 5.55415 17.2977 5.50545C17.603 5.46641 17.9127 5.52891 18.1789 5.6833C18.4452 5.83769 18.6533 6.0754 18.7711 6.35977C18.8889 6.64413 18.9099 6.95935 18.8308 7.25681C18.7517 7.55427 18.5769 7.81745 18.3334 8.00574C18.0295 8.24062 17.7834 8.54202 17.6141 8.88681C17.4448 9.2316 17.3567 9.6106 17.3567 9.99472C17.3567 10.3789 17.4447 10.7579 17.614 11.1027C17.7834 11.4476 18.0294 11.749 18.3334 11.9839C18.8486 12.3611 19.031 13.0467 18.7712 13.6301Z" fill="var(--fill-0, #4A72AE)"/>
</g>
</svg>
