<svg preserveAspectRatio="none" width="100%" height="100%" overflow="visible" style="display: block;" viewBox="0 0 19.9995 20" fill="none" xmlns="http://www.w3.org/2000/svg">
<g id="Group">
<path id="Vector" d="M0.635424 20C0.551929 20.0001 0.469243 19.9837 0.392125 19.9517C0.315007 19.9197 0.24498 19.8727 0.186072 19.8135C0.108491 19.7361 0.0523199 19.6398 0.0230382 19.5341C-0.00624348 19.4284 -0.00763603 19.317 0.0189964 19.2106L1.21293 14.4183C1.24075 14.3063 1.2985 14.204 1.38001 14.1224L14.8206 0.681839C15.7296 -0.22728 17.2094 -0.22728 18.1185 0.681839L19.3176 1.8809C20.2268 2.7901 20.2268 4.26989 19.3176 5.17889L5.87722 18.6194C5.79568 18.7011 5.69333 18.7589 5.58127 18.7865L0.789024 19.9805C0.738922 19.9937 0.687288 20.0003 0.635463 20H0.635424ZM2.40361 14.8966L1.50813 18.4905L5.10207 17.5951L18.4187 4.2792C18.8317 3.86618 18.8317 3.19287 18.4187 2.77985L17.2196 1.58078C16.8058 1.16697 16.1324 1.16772 15.7202 1.58078L2.40361 14.8966Z" fill="var(--fill-0, #4A72AE)"/>
<path id="Vector_2" d="M16.7999 7.43388C16.637 7.43388 16.4741 7.37191 16.3503 7.24736L12.7523 3.65001C12.5036 3.4014 12.5036 2.99864 12.7523 2.75019C13.0007 2.50174 13.4035 2.50174 13.652 2.75019L17.2503 6.3485C17.4987 6.59695 17.4987 6.99971 17.2503 7.24816C17.1246 7.37191 16.9619 7.43388 16.7999 7.43388ZM5.42767 18.8061C5.26481 18.8061 5.10211 18.7441 4.97832 18.6194L1.38001 15.0213C1.13156 14.7727 1.13156 14.3699 1.38001 14.1214C1.62846 13.873 2.03126 13.873 2.27987 14.1214L5.87802 17.7198C6.12646 17.9682 6.12646 18.371 5.87802 18.6194C5.81897 18.6787 5.74877 18.7257 5.67149 18.7577C5.5942 18.7898 5.51134 18.8062 5.42767 18.8061Z" fill="var(--fill-0, #4A72AE)"/>
</g>
</svg>
